<?xml version="1.0" encoding="UTF-8"?>
<svg width="352px" height="332px" viewBox="0 0 352 332" version="1.1" xmlns="http://www.w3.org/2000/svg" xmlns:xlink="http://www.w3.org/1999/xlink" style="background: #FFFFFF;">
    <!-- Generator: Sketch 51.2 (57519) - http://www.bohemiancoding.com/sketch -->
    <title>platypus</title>
    <desc>Created with Sketch.</desc>
    <defs></defs>
    <g id="Page-1" stroke="none" stroke-width="1" fill="none" fill-rule="evenodd">
        <path d="M-82,114 L157.62351,434.01364" id="imagebot_193" stroke-opacity="0" stroke="#010101"></path>
        <path d="M-17,92 L129.108611,413.538131" id="imagebot_195" stroke-opacity="0" stroke="#010101" stroke-dasharray="0"></path>
        <path d="M67,85 L113.755127,418.731147" id="imagebot_196" stroke-opacity="0" stroke="#010101" stroke-dasharray="0"></path>
        <path d="M94.7449093,289.143567 L85,216" id="imagebot_207" stroke-opacity="0" stroke="#010101" stroke-dasharray="0"></path>
        <path d="M-82,194.809421 C-80.0510181,194.809421 -77.2092948,195.27447 -76.1549124,193.283477 C-74.6639134,190.471381 -75.5733763,191.837464 -72.2588066,190.238856 C-68.55314,188.444056 -69.9484549,186.133341 -66.413719,184.142348 C-64.178614,182.877995 -62.5176132,181.090461 -58.6215075,178.04584 C-56.6734546,176.519896 -54.8248016,176.069379 -52.7764199,173.475275 C-50.4865055,170.575982 -46.9322612,170.423388 -44.9842083,168.90471 C-43.0361555,167.378767 -40.4824133,166.56493 -37.1910678,164.334146 C-32.5369215,161.173262 -29.9952559,160.584684 -27.4498745,159.756315 C-23.8501105,158.593691 -21.4189926,156.980551 -17.712397,155.18575 C-14.3959693,153.587143 -13.8107174,152.141129 -11.8691673,152.141129 C-7.9674877,152.141129 -5.71937708,150.259132 -2.12425803,149.089242 C0.421123423,148.268139 2.06540268,148.733188 5.66981144,147.570565 C8.21519289,146.742195 11.5130411,146.044621 13.4638809,146.044621 C17.3562708,146.044621 19.5950917,146.843925 21.2579504,146.044621 C24.964546,144.249821 29.0520199,143 30.9935699,143 L38.7876394,143 L50.4740988,143 L62.1698478,143 L75.807147,143 L85.5427665,143 L93.336836,143 L105.023295,143 L110.875815,143 L112.817365,143 L116.719044,143" id="imagebot_209" stroke-opacity="0" stroke="#010101" stroke-dasharray="0"></path>
        <ellipse id="imagebot_210" fill-opacity="0" fill="#010101" fill-rule="nonzero" cx="67.465248" cy="142.363916" rx="1" ry="1"></ellipse>
        <path d="M-35,252.283477 C-33.0519471,252.283477 -31.8610059,249.347852 -27.2087174,246.186969 C-23.9201589,243.956185 -25.2578776,241.616404 -23.3070379,240.097727 C-21.3654878,238.571783 -16.4512294,234.669727 -11.6205785,229.430654 C-9.07519706,226.662156 -3.82650904,221.808202 0.0658808407,218.763581 C2.01672064,217.237638 5.6211294,213.92416 7.85995031,212.667073 C11.3900414,210.67608 13.8611051,210.668813 19.5464097,209.615186 C23.7918086,208.837681 26.7459375,207.391668 29.2913189,206.570565 C32.886438,205.400674 35.2088663,205.778527 40.9777783,205.044621 C47.0625405,204.274383 48.7718477,202 50.7226875,202 L66.3108265,202 L76.046446,202 L87.7329054,202 L101.370205,202 L111.115114,202 C113.065954,202 116.363802,202.697574 118.909183,203.518677 C122.504302,204.688567 126.703253,203.518677 128.644803,203.518677 L130.595643,203.518677 L134.497322,203.518677" id="imagebot_211" stroke-opacity="0" stroke="#010101" stroke-dasharray="0"></path>
        <path d="M12,314.519896 C12,313.001219 14.8426523,313.466268 15.8923899,311.475275 C16.6448567,310.065594 17.8432297,308.430654 21.7449093,308.430654 C23.6864593,308.430654 27.5881389,305.378767 29.5389787,305.378767 C31.4805288,305.378767 35.428657,302.682933 37.3237585,302.334146 C41.5691575,301.549375 43.5385767,299.754574 47.0686678,297.763581 C49.3074887,296.499228 53.3578037,294.936952 58.7551271,293.18575 C61.3005085,292.364647 62.7032553,290.489916 64.5983568,290.141129 C68.8437558,289.356358 71.2033429,285.694093 76.2941058,284.044621 C78.0870205,283.463309 81.7936161,283.303448 86.0297254,282.518677 C87.9248269,282.16989 91.8729551,281 95.7746347,281 L105.510254,281 L119.147553,281 L126.941623,281 C130.843302,281 132.784852,284.044621 134.735692,284.044621 L136.686532,284.044621" id="imagebot_213" stroke-opacity="0" stroke="#010101"></path>
        <path d="M77,276.362632 C126.697012,248.41929 113.024821,184.425587 113.024821,184.425587 L230.882317,179 C230.882317,179 227.85519,246.490541 278.574609,274.919991" id="imagebot_178" stroke="#010101" stroke-width="0.8632" fill="#00BFBF" fill-rule="nonzero" stroke-linecap="round" stroke-linejoin="round"></path>
        <path d="M274.197346,34.8000109 C248.09589,20.4363176 214.977913,12 176.066296,12 C140.682985,12 110.471853,18.5859729 85.9741729,30.0173401 C57.9682326,45.1650777 35.4552256,67.1810442 21.662751,93.3210842 C15.3077882,107.888629 12,123.742007 12,140.348067 C12,211.178637 124.524941,268.680453 176.066296,268.680453 C229.632418,268.680453 340.152639,211.178637 340.152639,140.348067 C340.152639,123.240218 336.484001,106.916414 329.507575,91.9882088 C317.07831,69.0470699 297.913185,49.3518748 274.197346,34.8000109 Z" id="imagebot_179" stroke="#FFFFFF" stroke-width="23" fill="#9B4DCA" fill-rule="nonzero" stroke-linecap="round" stroke-linejoin="round"></path>
        <path d="M174.770718,136.085065 C129.230363,136.085065 79.687358,173.84853 81.688683,197.70935 C109.012896,282.192169 -6.73720757,320.99025 180.733849,320.99025 C368.164063,320.99025 231.624685,244.816685 265.89227,195.737114 C263.931789,167.899491 204.504689,134.080498 174.770718,136.085065 Z" id="imagebot_180" stroke="#FFFFFF" stroke-width="21" fill="#BC69ED" fill-rule="nonzero"></path>
        <path d="M134.214713,63 C102.64037,63 77,86.1888969 77,114.761043 C77,143.333188 102.64037,166.520517 134.214713,166.520517 C152.778421,166.520517 169.237173,158.504447 179.681765,146.100865 C190.126357,158.513856 206.625204,166.520517 225.188912,166.520517 C256.763254,166.520517 282.403625,143.33162 282.403625,114.761043 C282.403625,86.1873288 256.763254,63 225.188912,63 C206.645251,63 190.126357,71.0097975 179.681765,83.4212202 C169.237173,71.0207741 152.758374,63 134.214713,63 Z" id="imagebot_182" stroke="#FFFFFF" stroke-width="7" fill="#FFFFFF" fill-rule="nonzero" stroke-linecap="round"></path>
        <path d="M175.789062,133.929854 C175.789062,148.25059 161.950107,159.856569 144.894531,159.856569 C127.838955,159.856569 114,148.247452 114,133.929854 C114,119.609118 127.838955,108 144.894531,108 C161.950107,108 175.789062,119.609118 175.789062,133.929854 Z" id="imagebot_184" fill="#9B4DCA" fill-rule="nonzero"></path>
        <path d="M130.045707,126.728832 C130.045707,130.444754 126.455059,133.454525 122.041555,133.454525 C117.590648,133.454525 114,130.444754 114,126.728832 C114,123.01291 117.590648,120 122.041555,120 C126.455059,120 130.045707,123.016048 130.045707,126.728832 Z" id="imagebot_185" fill="#FFFFFF" fill-rule="nonzero"></path>
        <path d="M240.789062,133.929854 C240.789062,148.25059 226.950107,159.856569 209.894531,159.856569 C192.838955,159.856569 179,148.247452 179,133.929854 C179,119.609118 192.838955,108 209.894531,108 C226.950107,108 240.789062,119.609118 240.789062,133.929854 Z" id="imagebot_187" fill="#9B4DCA" fill-rule="nonzero"></path>
        <path d="M214.008304,126.728832 C214.008304,130.444754 210.417657,133.454525 206.004152,133.454525 C201.553245,133.454525 198,130.444754 198,126.728832 C198,123.01291 201.553245,120 206.004152,120 C210.417657,120.003138 214.008304,123.016048 214.008304,126.728832 Z" id="imagebot_188" fill="#FFFFFF" fill-rule="nonzero"></path>
    </g>
</svg>