<?xml version="1.0" standalone="no"?>
<!DOCTYPE svg PUBLIC "-//W3C//DTD SVG 20010904//EN"
 "http://www.w3.org/TR/2001/REC-SVG-20010904/DTD/svg10.dtd">
<svg version="1.0" xmlns="http://www.w3.org/2000/svg"
 width="479.000000pt" height="479.000000pt" viewBox="0 0 479.000000 479.000000"
 preserveAspectRatio="xMidYMid meet">
<metadata>
Created by potrace 1.11, written by Peter Selinger 2001-2013
</metadata>
<g transform="translate(0.000000,479.000000) scale(0.100000,-0.100000)"
fill="#000000" stroke="none">
<path d="M2277 4654 c-1 -1 -54 -4 -117 -8 -362 -19 -731 -104 -1030 -238 -53
-24 -220 -123 -270 -160 -309 -232 -481 -412 -642 -673 -67 -110 -78 -132
-122 -265 -103 -308 -117 -634 -39 -885 22 -72 69 -186 93 -225 5 -8 19 -33
30 -55 134 -248 448 -560 783 -777 52 -34 57 -40 51 -65 -20 -91 -39 -155 -75
-264 -98 -292 -114 -375 -98 -482 19 -115 93 -205 224 -267 70 -33 227 -80
320 -94 134 -21 251 -33 410 -41 61 -4 142 -8 180 -10 83 -5 751 -5 845 0 105
5 308 22 360 30 14 2 57 9 95 15 39 6 90 16 115 21 25 6 52 12 60 14 54 11
172 52 228 80 153 74 243 173 277 301 37 144 8 287 -120 580 l-61 141 59 38
c307 199 608 496 759 750 66 110 128 256 157 370 10 40 16 72 26 150 6 47 7
239 1 275 -2 14 -7 50 -11 80 -4 30 -8 62 -10 70 -2 8 -5 26 -8 40 -5 23 -12
53 -37 148 -74 285 -341 652 -660 905 -233 185 -458 296 -791 391 -62 17 -264
62 -319 70 -140 20 -170 23 -290 32 -94 6 -368 12 -373 8z"/>
</g>
</svg>
