<?xml version="1.0" encoding="UTF-8"?>
<svg width="370px" height="349px" viewBox="0 0 370 349" version="1.1" xmlns="http://www.w3.org/2000/svg" xmlns:xlink="http://www.w3.org/1999/xlink">
    <!-- Generator: Sketch 51.2 (57519) - http://www.bohemiancoding.com/sketch -->
    <title>platypus</title>
    <desc>Created with Sketch.</desc>
    <defs></defs>
    <g id="Page-1" stroke="none" stroke-width="1" fill="none" fill-rule="evenodd">
        <path d="M-73,123 L166.62351,443.01364" id="imagebot_193" stroke-opacity="0" stroke="#010101"></path>
        <path d="M-8,101 L138.108611,422.538131" id="imagebot_195" stroke-opacity="0" stroke="#010101" stroke-dasharray="0"></path>
        <path d="M76,94 L122.755127,427.731147" id="imagebot_196" stroke-opacity="0" stroke="#010101" stroke-dasharray="0"></path>
        <path d="M103.744909,298.143567 L94,225" id="imagebot_207" stroke-opacity="0" stroke="#010101" stroke-dasharray="0"></path>
        <path d="M-73,203.809421 C-71.0510181,203.809421 -68.2092948,204.27447 -67.1549124,202.283477 C-65.6639134,199.471381 -66.5733763,200.837464 -63.2588066,199.238856 C-59.55314,197.444056 -60.9484549,195.133341 -57.413719,193.142348 C-55.178614,191.877995 -53.5176132,190.090461 -49.6215075,187.04584 C-47.6734546,185.519896 -45.8248016,185.069379 -43.7764199,182.475275 C-41.4865055,179.575982 -37.9322612,179.423388 -35.9842083,177.90471 C-34.0361555,176.378767 -31.4824133,175.56493 -28.1910678,173.334146 C-23.5369215,170.173262 -20.9952559,169.584684 -18.4498745,168.756315 C-14.8501105,167.593691 -12.4189926,165.980551 -8.71239696,164.18575 C-5.39596931,162.587143 -4.81071737,161.141129 -2.86916729,161.141129 C1.0325123,161.141129 3.28062292,159.259132 6.87574197,158.089242 C9.42112342,157.268139 11.0654027,157.733188 14.6698114,156.570565 C17.2151929,155.742195 20.5130411,155.044621 22.4638809,155.044621 C26.3562708,155.044621 28.5950917,155.843925 30.2579504,155.044621 C33.964546,153.249821 38.0520199,152 39.9935699,152 L47.7876394,152 L59.4740988,152 L71.1698478,152 L84.807147,152 L94.5427665,152 L102.336836,152 L114.023295,152 L119.875815,152 L121.817365,152 L125.719044,152" id="imagebot_209" stroke-opacity="0" stroke="#010101" stroke-dasharray="0"></path>
        <ellipse id="imagebot_210" fill-opacity="0" fill="#010101" fill-rule="nonzero" cx="76.465248" cy="151.363916" rx="1" ry="1"></ellipse>
        <path d="M-26,261.283477 C-24.0519471,261.283477 -22.8610059,258.347852 -18.2087174,255.186969 C-14.9201589,252.956185 -16.2578776,250.616404 -14.3070379,249.097727 C-12.3654878,247.571783 -7.45122943,243.669727 -2.62057851,238.430654 C-0.0751970588,235.662156 5.17349096,230.808202 9.06588084,227.763581 C11.0167206,226.237638 14.6211294,222.92416 16.8599503,221.667073 C20.3900414,219.67608 22.8611051,219.668813 28.5464097,218.615186 C32.7918086,217.837681 35.7459375,216.391668 38.2913189,215.570565 C41.886438,214.400674 44.2088663,214.778527 49.9777783,214.044621 C56.0625405,213.274383 57.7718477,211 59.7226875,211 L75.3108265,211 L85.046446,211 L96.7329054,211 L110.370205,211 L120.115114,211 C122.065954,211 125.363802,211.697574 127.909183,212.518677 C131.504302,213.688567 135.703253,212.518677 137.644803,212.518677 L139.595643,212.518677 L143.497322,212.518677" id="imagebot_211" stroke-opacity="0" stroke="#010101" stroke-dasharray="0"></path>
        <path d="M21,323.519896 C21,322.001219 23.8426523,322.466268 24.8923899,320.475275 C25.6448567,319.065594 26.8432297,317.430654 30.7449093,317.430654 C32.6864593,317.430654 36.5881389,314.378767 38.5389787,314.378767 C40.4805288,314.378767 44.428657,311.682933 46.3237585,311.334146 C50.5691575,310.549375 52.5385767,308.754574 56.0686678,306.763581 C58.3074887,305.499228 62.3578037,303.936952 67.7551271,302.18575 C70.3005085,301.364647 71.7032553,299.489916 73.5983568,299.141129 C77.8437558,298.356358 80.2033429,294.694093 85.2941058,293.044621 C87.0870205,292.463309 90.7936161,292.303448 95.0297254,291.518677 C96.9248269,291.16989 100.872955,290 104.774635,290 L114.510254,290 L128.147553,290 L135.941623,290 C139.843302,290 141.784852,293.044621 143.735692,293.044621 L145.686532,293.044621" id="imagebot_213" stroke-opacity="0" stroke="#010101"></path>
        <path d="M86,285.362632 C135.697012,257.41929 122.024821,193.425587 122.024821,193.425587 L239.882317,188 C239.882317,188 236.85519,255.490541 287.574609,283.919991" id="imagebot_178" stroke="#010101" stroke-width="0.8632" fill="#00BFBF" fill-rule="nonzero" stroke-linecap="round" stroke-linejoin="round"></path>
        <path d="M283.197346,43.8000109 C257.09589,29.4363176 223.977913,21 185.066296,21 C149.682985,21 119.471853,27.5859729 94.9741729,39.0173401 C66.9682326,54.1650777 44.4552256,76.1810442 30.662751,102.321084 C24.3077882,116.888629 21,132.742007 21,149.348067 C21,220.178637 133.524941,277.680453 185.066296,277.680453 C238.632418,277.680453 349.152639,220.178637 349.152639,149.348067 C349.152639,132.240218 345.484001,115.916414 338.507575,100.988209 C326.07831,78.0470699 306.913185,58.3518748 283.197346,43.8000109 Z" id="imagebot_179" stroke="#FFFFFF" stroke-width="23" fill="#9B4DCA" fill-rule="nonzero" stroke-linecap="round" stroke-linejoin="round"></path>
        <path d="M183.770718,145.085065 C138.230363,145.085065 88.687358,182.84853 90.688683,206.70935 C118.012896,291.192169 2.26279243,329.99025 189.733849,329.99025 C377.164063,329.99025 240.624685,253.816685 274.89227,204.737114 C272.931789,176.899491 213.504689,143.080498 183.770718,145.085065 Z" id="imagebot_180" stroke="#FFFFFF" stroke-width="21" fill="#BC69ED" fill-rule="nonzero"></path>
        <path d="M143.214713,72 C111.64037,72 86,95.1888969 86,123.761043 C86,152.333188 111.64037,175.520517 143.214713,175.520517 C161.778421,175.520517 178.237173,167.504447 188.681765,155.100865 C199.126357,167.513856 215.625204,175.520517 234.188912,175.520517 C265.763254,175.520517 291.403625,152.33162 291.403625,123.761043 C291.403625,95.1873288 265.763254,72 234.188912,72 C215.645251,72 199.126357,80.0097975 188.681765,92.4212202 C178.237173,80.0207741 161.758374,72 143.214713,72 Z" id="imagebot_182" stroke="#FFFFFF" stroke-width="7" fill="#FFFFFF" fill-rule="nonzero" stroke-linecap="round"></path>
        <path d="M184.789062,142.929854 C184.789062,157.25059 170.950107,168.856569 153.894531,168.856569 C136.838955,168.856569 123,157.247452 123,142.929854 C123,128.609118 136.838955,117 153.894531,117 C170.950107,117 184.789062,128.609118 184.789062,142.929854 Z" id="imagebot_184" fill="#9B4DCA" fill-rule="nonzero"></path>
        <path d="M139.045707,135.728832 C139.045707,139.444754 135.455059,142.454525 131.041555,142.454525 C126.590648,142.454525 123,139.444754 123,135.728832 C123,132.01291 126.590648,129 131.041555,129 C135.455059,129 139.045707,132.016048 139.045707,135.728832 Z" id="imagebot_185" fill="#FFFFFF" fill-rule="nonzero"></path>
        <path d="M249.789062,142.929854 C249.789062,157.25059 235.950107,168.856569 218.894531,168.856569 C201.838955,168.856569 188,157.247452 188,142.929854 C188,128.609118 201.838955,117 218.894531,117 C235.950107,117 249.789062,128.609118 249.789062,142.929854 Z" id="imagebot_187" fill="#9B4DCA" fill-rule="nonzero"></path>
        <path d="M223.008304,135.728832 C223.008304,139.444754 219.417657,142.454525 215.004152,142.454525 C210.553245,142.454525 207,139.444754 207,135.728832 C207,132.01291 210.553245,129 215.004152,129 C219.417657,129.003138 223.008304,132.016048 223.008304,135.728832 Z" id="imagebot_188" fill="#FFFFFF" fill-rule="nonzero"></path>
    </g>
</svg>